# xmcd
# 
# Track frame offsets:
#     150
#     6986
#     13211
#     20486
#     33581
#     38847
#     43228
#     51102
#     52828
#     64529
#     70679
#     81149
#     88649
#     95025
#     101580
#     110129
#     116055
#     124525
#     135880
#     140531
#     154932
#     160183
#     170608
#     188718
#     206355
#     221688
#     242313
#     267664
#     284986
#     304619
#     326894
#     343472
# 
# Disc length: 4798
# 
# Revision: 2
# Processed by: cddbd v1.5.2PL0 Copyright (c) Steve Scherf et al.
# Submitted via: BonkEnc v1.0.5
# 
DISCID=da12bc20
DTITLE=carcass - Heartwork
DYEAR=1993
DGENRE=Death Metal
TTITLE0=Genital Grinder
TTITLE1=Regurgitation Of Giblets
TTITLE2=Maggot Colony
TTITLE3=Pyosisified (Rotten To The Gore)
TTITLE4=Carbonized Eyesockets
TTITLE5=Frenzied Detruncation
TTITLE6=Vomited Anal Tract
TTITLE7=Festerday
TTITLE8=Fermenting Innards
TTITLE9=Excreted Alive
TTITLE10=Suppuration
TTITLE11=Foeticide
TTITLE12=Microwaved Uterogestation
TTITLE13=Feast On Dismembered Carnage
TTITLE14=Splattered Cavities
TTITLE15=Psychopathologist
TTITLE16=Burnt To A Crisp
TTITLE17=Pungent Excruciation
TTITLE18=Manifestation Of Verrucose Urethra
TTITLE19=Oxidised Razor Masticator
TTITLE20=Mucopurulence Excretor
TTITLE21=Malignant Defication
TTITLE22=Buried Dreams
TTITLE23=Carnal Forge
TTITLE24=No Love Lost
TTITLE25=Heartwork
TTITLE26=Embodiment
TTITLE27=This Mortal Coil
TTITLE28=Arbeit Macht Fleisch
TTITLE29=Blind Bleeding The Blind
TTITLE30=Doctrinal Expletives
TTITLE31=Death Certificate
EXTD=
EXTT0=
EXTT1=
EXTT2=
EXTT3=
EXTT4=
EXTT5=
EXTT6=
EXTT7=
EXTT8=
EXTT9=
EXTT10=
EXTT11=
EXTT12=
EXTT13=
EXTT14=
EXTT15=
EXTT16=
EXTT17=
EXTT18=
EXTT19=
EXTT20=
EXTT21=
EXTT22=
EXTT23=
EXTT24=
EXTT25=
EXTT26=
EXTT27=
EXTT28=
EXTT29=
EXTT30=
EXTT31=
PLAYORDER=
